<svg width="350" height="350" viewBox="0 0 350 350" fill="none" xmlns="http://www.w3.org/2000/svg">
<path d="M104.89 164.345C104.89 205.736 138.444 239.289 179.834 239.289C221.225 239.289 254.779 205.736 254.779 164.345C254.779 122.954 221.225 89.4009 179.834 89.4009C138.464 89.4473 104.937 122.975 104.89 164.345ZM179.834 169.081C167.398 169.15 156.86 159.94 155.268 147.604C153.677 135.272 161.532 123.685 173.58 120.598V114.262C173.58 111.393 175.904 109.069 178.774 109.069C181.643 109.069 183.967 111.393 183.967 114.262V120.282C195.752 122.276 204.354 132.522 204.279 144.477C204.279 147.312 201.98 149.61 199.146 149.61C196.311 149.61 194.013 147.312 194.013 144.477C194.004 136.632 187.639 130.278 179.794 130.287C171.948 130.296 165.595 136.663 165.607 144.509C165.615 152.352 171.983 158.705 179.829 158.693C192.549 158.766 203.114 168.527 204.189 181.204C205.264 193.879 196.494 205.281 183.967 207.495V213.686C183.967 216.555 181.643 218.879 178.774 218.879C175.904 218.879 173.58 216.555 173.58 213.686V207.176C162.726 204.31 155.141 194.525 155.068 183.3C155.068 180.399 157.422 178.045 160.323 178.045C163.224 178.045 165.578 180.399 165.578 183.3C165.595 190.554 171.061 196.638 178.272 197.429C178.539 197.386 178.811 197.365 179.084 197.362C179.475 197.362 179.863 197.409 180.246 197.496C188.037 197.305 194.219 190.876 194.106 183.085C193.993 175.292 187.625 169.046 179.834 169.081Z" fill="white"/>
<path d="M300.111 275.022C300.073 275.043 300.033 275.063 299.989 275.083L251.776 297.861C252.295 300.53 252.521 303.246 252.448 305.965C252.373 308.776 250.072 311.016 247.26 311.016C247.211 311.016 247.162 311.016 247.113 311.016L176.551 309.074C173.681 308.996 171.421 306.608 171.499 303.739C171.577 300.869 173.968 298.609 176.835 298.687L241.696 300.472C239.545 287.902 228.827 278.593 216.08 278.222L173.157 277.042C164.679 276.799 156.367 274.651 148.834 270.759L144.466 268.498C123.016 257.322 97.1691 258.777 77.11 272.292L75.3913 334.736L82.7675 330.786C90.0973 326.844 98.6733 325.905 106.684 328.168L179.53 348.616C193.569 351.491 208.159 349.862 221.219 343.955L322.141 278.674C316.382 272.779 307.464 271.298 300.111 275.022Z" fill="white"/>
<path d="M27.9868 345.581L30.546 252.677L67.2326 253.688L64.6734 346.593L27.9868 345.581Z" fill="white"/>
<path d="M184.709 61.583V5.19375C184.709 2.32443 182.385 0 179.516 0C176.646 0 174.322 2.32443 174.322 5.19375V61.583C174.322 64.4523 176.646 66.7768 179.516 66.7768C182.385 66.7768 184.709 64.4523 184.709 61.583Z" fill="white"/>
<path d="M229.227 61.583V34.8723C229.227 32.003 226.903 29.6786 224.033 29.6786C221.164 29.6786 218.84 32.003 218.84 34.8723V61.583C218.84 64.4524 221.164 66.7768 224.033 66.7768C226.903 66.7768 229.227 64.4524 229.227 61.583Z" fill="white"/>
<path d="M140.191 61.583V34.8723C140.191 32.003 137.867 29.6786 134.998 29.6786C132.128 29.6786 129.804 32.003 129.804 34.8723V61.583C129.804 64.4524 132.128 66.7768 134.998 66.7768C137.867 66.7768 140.191 64.4524 140.191 61.583Z" fill="white"/>
</svg>
