<svg width="350" height="350" viewBox="0 0 350 350" fill="none" xmlns="http://www.w3.org/2000/svg">
<path d="M164.746 24.0311C125.219 26.2999 88.1522 41.6596 58.5656 68.0278L104.323 113.785C121.542 99.4492 142.451 90.786 164.746 88.7489V24.0311Z" fill="white"/>
<path d="M89.8168 128.281L44.0604 82.5248C17.6696 112.103 2.29077 149.173 0.00756836 188.709H64.7282C66.779 166.41 75.4606 145.5 89.8168 128.281Z" fill="white"/>
<path d="M285.272 188.709H349.992C347.709 149.173 332.331 112.103 305.94 82.5248L260.183 128.281C274.539 145.499 283.221 166.41 285.272 188.709Z" fill="white"/>
<path d="M285.257 209.217C283.82 225.01 279.313 238.183 273.982 248.75C279.182 256.769 283.518 263.546 286.382 268.047C294.182 280.305 292.455 296.04 282.182 306.314C279.688 308.808 276.838 310.818 273.751 312.303L284.407 322.961C286.413 324.966 289.042 325.969 291.67 325.969C294.299 325.969 296.928 324.966 298.933 322.961C329.643 292.254 347.549 252.185 350 209.217H285.257Z" fill="white"/>
<path d="M64.7432 209.217H0C2.45068 252.185 20.3574 292.254 51.0665 322.961C53.0722 324.967 55.7006 325.97 58.329 325.97C60.9574 325.97 63.5865 324.966 65.5922 322.961L96.7039 291.847C100.715 287.836 100.715 281.332 96.7039 277.321C88.5849 269.202 68.1338 246.471 64.7432 209.217Z" fill="white"/>
<path d="M291.434 68.0278C261.848 41.6589 224.781 26.2999 185.254 24.0311V88.7489C207.549 90.786 228.458 99.4492 245.677 113.785L291.434 68.0278Z" fill="white"/>
<path d="M197.784 176.351C185.222 163.789 164.781 163.789 152.219 176.351C139.656 188.914 139.656 209.355 152.219 221.917C168.089 237.787 246.084 287.587 254.925 293.213C258.98 295.794 264.282 295.211 267.681 291.813C271.079 288.415 271.662 283.112 269.081 279.057C263.454 270.216 213.655 192.221 197.784 176.351Z" fill="white"/>
</svg>
