<svg width="1024" height="1024" viewBox="0 0 1024 1024" fill="none" xmlns="http://www.w3.org/2000/svg">
<circle cx="512" cy="512" r="512" fill="#C0392B"/>
<path d="M211 805.741C211 815.474 214.572 823.913 221.717 831.057C228.861 838.202 237.3 841.774 247.033 841.774C256.766 841.774 265.205 838.202 272.349 831.057C279.494 823.913 283.066 815.474 283.066 805.741V453.489C283.066 409.38 291.608 372.519 308.693 342.906C325.777 313.292 351.3 291.083 385.262 276.276C419.224 261.469 461.47 254.066 511.999 254.066C562.735 254.066 605.032 261.469 638.89 276.276C672.749 291.083 698.22 313.292 715.305 342.906C732.389 372.519 740.931 409.38 740.931 453.489V805.741C740.931 815.474 744.504 823.913 751.648 831.057C758.792 838.202 767.231 841.774 776.964 841.774C786.696 841.774 795.134 838.202 802.281 831.057C809.427 823.913 813 815.474 813 805.741V453.489C813 394.47 801.557 344.769 778.672 304.388C755.79 264.006 721.983 233.512 677.252 212.907C632.522 192.302 577.438 182 511.999 182C446.56 182 391.475 192.302 346.744 212.907C302.014 233.512 268.207 264.006 245.324 304.388C222.441 344.769 211 394.47 211 453.489V805.741Z" fill="white"/>
<path d="M337 756.641C337 762.299 339.077 767.205 343.231 771.359C347.384 775.513 352.291 777.59 357.949 777.59C363.608 777.59 368.514 775.513 372.668 771.359C376.822 767.205 378.899 762.299 378.899 756.641V551.843C378.899 526.198 383.865 504.767 393.798 487.55C403.731 470.333 418.57 457.42 438.315 448.812C458.061 440.203 482.622 435.899 511.999 435.899C541.497 435.899 566.088 440.203 585.773 448.812C605.459 457.42 620.268 470.333 630.2 487.55C640.133 504.767 645.1 526.198 645.1 551.843V756.641C645.1 762.299 647.176 767.205 651.33 771.359C655.484 775.513 660.39 777.59 666.049 777.59C671.707 777.59 676.613 775.513 680.768 771.359C684.923 767.205 687 762.299 687 756.641V551.843C687 517.529 680.347 488.633 667.042 465.156C653.738 441.678 634.083 423.949 608.077 411.969C582.071 399.99 550.045 394 511.999 394C473.953 394 441.927 399.99 415.921 411.969C389.915 423.949 370.26 441.678 356.956 465.156C343.652 488.633 337 517.529 337 551.843V756.641Z" fill="white"/>
<circle cx="452" cy="686" r="25" fill="white"/>
<circle cx="572" cy="686" r="25" fill="white"/>
</svg>
