<svg width="500" height="500" viewBox="0 0 500 500" fill="none" xmlns="http://www.w3.org/2000/svg">
<g clip-path="url(#clip0)">
<path d="M453.786 103.046C453.509 99.8659 451.584 97.0646 448.714 95.6696L253.971 0.914884C251.464 -0.305612 248.534 -0.305612 246.028 0.914884L51.286 95.6682C48.4163 97.0646 46.4892 99.8645 46.2141 103.044C45.9655 105.901 40.3811 173.984 61.8948 257.138C74.5676 306.121 94.0816 350.064 119.894 387.744C152.267 435.001 194.634 472.427 245.821 498.981C247.131 499.661 248.567 500 250.001 500C251.435 500 252.87 499.661 254.18 498.981C305.366 472.427 347.735 435.003 380.109 387.744C405.921 350.064 425.435 306.121 438.107 257.138C459.619 173.984 454.035 105.903 453.786 103.046ZM249.999 351.488C186.338 351.488 134.546 299.696 134.546 236.035C134.546 172.374 186.338 120.582 249.999 120.582C313.661 120.582 365.452 172.374 365.452 236.035C365.452 299.696 313.661 351.488 249.999 351.488Z" fill="white"/>
<g clip-path="url(#clip1)">
<path d="M221.666 266.695L218.771 307.412C222.912 307.412 224.706 305.632 226.857 303.496L246.275 284.939L286.51 314.404C293.89 318.517 299.089 316.351 301.079 307.616L327.49 183.862L327.497 183.854C329.837 172.946 323.552 168.68 316.362 171.356L161.123 230.791C150.528 234.903 150.689 240.81 159.322 243.486L199.01 255.83L291.199 198.146C295.537 195.273 299.482 196.863 296.237 199.736L221.666 266.695Z" fill="white"/>
</g>
</g>
<defs>
<clipPath id="clip0">
<rect width="500" height="500" fill="white"/>
</clipPath>
<clipPath id="clip1">
<rect width="175" height="175" fill="white" transform="translate(153 156)"/>
</clipPath>
</defs>
</svg>
