<svg width="451" height="500" viewBox="0 0 451 500" fill="none" xmlns="http://www.w3.org/2000/svg">
<path d="M139.074 374.99H232.826C236.988 374.99 240.636 376.562 243.761 379.681C246.889 382.809 248.45 386.451 248.45 390.619V484.375C248.45 488.543 246.883 492.19 243.761 495.313C240.636 498.431 236.992 500 232.826 500H139.074C134.912 500 131.255 498.435 128.142 495.313C125.009 492.19 123.445 488.543 123.445 484.375V390.619C123.445 386.451 125.005 382.809 128.142 379.681C131.255 376.554 134.912 374.99 139.074 374.99Z" fill="white"/>
<path d="M16.0162 94.3392C26.6964 74.6671 40.4948 58.0735 57.4263 44.5283C74.3469 30.9885 93.3705 20.1756 114.46 12.1059C135.554 4.03894 156.516 0 177.354 0C256.517 0 316.933 34.6361 358.603 103.91C360.684 107.293 361.402 110.938 360.752 114.846C360.098 118.748 358.08 122.004 354.695 124.608L290.63 173.441C287.245 175.52 283.989 176.562 280.863 176.562C276.174 176.562 272.14 174.475 268.751 170.309C250.004 146.874 236.069 131.901 226.955 125.387C215.755 117.837 201.697 114.063 184.769 114.063C168.885 114.063 154.891 118.231 142.776 126.558C130.668 134.893 124.619 144.529 124.619 155.467C124.619 167.701 127.868 177.601 134.381 185.154C140.89 192.704 151.831 199.992 167.199 207.026C187.506 216.14 206.134 230.269 223.053 249.41C239.985 268.553 248.444 288.931 248.444 310.544V328.122C248.444 333.075 247.084 337.955 244.345 342.773C241.609 347.594 238.291 350.001 234.382 350.001H140.631C136.464 350.001 132.821 347.987 129.694 343.937C126.575 339.912 125.006 335.678 125.006 331.258C125.006 324.749 121.426 316.016 114.27 305.084C107.107 294.147 98.1907 285.675 87.505 279.683C77.3542 273.956 69.4186 269.34 63.6831 265.819C57.9421 262.308 50.4608 256.632 41.2131 248.825C31.9695 241.01 24.8069 233.261 19.735 225.582C14.6548 217.9 10.0946 207.937 6.05841 195.695C2.01398 183.456 3.05176e-05 170.303 3.05176e-05 156.242C0.00274658 134.627 5.34558 113.991 16.0162 94.3392Z" fill="white"/>
<path d="M340.027 437.495H386.903C388.984 437.495 390.808 438.281 392.37 439.84C393.934 441.404 394.715 443.225 394.715 445.309V492.187C394.715 494.271 393.932 496.095 392.37 497.656C390.808 499.215 388.986 500 386.903 500H340.027C337.946 500 336.117 499.217 334.561 497.656C332.994 496.095 332.212 494.271 332.212 492.187V445.309C332.212 443.225 332.992 441.404 334.561 439.84C336.117 438.277 337.946 437.495 340.027 437.495Z" fill="white"/>
<path d="M278.498 297.17C283.838 287.334 290.737 279.037 299.203 272.264C307.663 265.494 317.175 260.088 327.72 256.053C338.267 252.019 348.748 250 359.167 250C398.748 250 428.956 267.318 449.791 301.955C450.832 303.647 451.191 305.469 450.866 307.423C450.539 309.374 449.53 311.002 447.837 312.304L415.805 336.72C414.113 337.76 412.484 338.281 410.921 338.281C408.577 338.281 406.56 337.238 404.866 335.154C395.492 323.437 388.524 315.95 383.968 312.693C378.368 308.918 371.338 307.032 362.875 307.032C354.932 307.032 347.935 309.115 341.878 313.279C335.824 317.446 332.799 322.265 332.799 327.733C332.799 333.851 334.424 338.801 337.68 342.577C340.935 346.352 346.406 349.996 354.089 353.513C364.243 358.07 373.557 365.135 382.017 374.705C390.482 384.276 394.712 394.465 394.712 405.272V414.061C394.712 416.537 394.032 418.978 392.663 421.386C391.294 423.797 389.635 425 387.681 425H340.805C338.722 425 336.901 423.993 335.337 421.968C333.778 419.956 332.993 417.839 332.993 415.629C332.993 412.375 331.203 408.008 327.625 402.542C324.044 397.073 319.585 392.837 314.242 389.842C309.167 386.978 305.199 384.67 302.331 382.91C299.461 381.154 295.72 378.316 291.096 374.412C286.475 370.505 282.893 366.631 280.357 362.791C277.817 358.95 275.537 353.969 273.519 347.847C271.497 341.728 270.49 335.152 270.49 328.121C270.491 317.314 273.163 306.995 278.498 297.17Z" fill="white"/>
</svg>
