<svg width="350" height="350" viewBox="0 0 350 350" fill="none" xmlns="http://www.w3.org/2000/svg">
<path d="M298.958 131.25H277.083V102.083C277.083 45.7939 231.29 0 175 0C118.71 0 72.9169 45.7939 72.9169 102.083V131.25H51.0419C47.0114 131.25 43.75 134.511 43.75 138.542V320.834C43.75 336.919 56.8306 350 72.9169 350H277.084C293.169 350 306.25 336.919 306.25 320.833V138.542C306.25 134.511 302.989 131.25 298.958 131.25ZM196.833 283.57C197.06 285.628 196.399 287.693 195.017 289.239C193.635 290.784 191.656 291.667 189.584 291.667H160.417C158.345 291.667 156.365 290.784 154.984 289.239C153.602 287.694 152.94 285.629 153.168 283.57L157.768 242.206C150.298 236.773 145.834 228.178 145.834 218.75C145.834 202.664 158.914 189.583 175.001 189.583C191.087 189.583 204.168 202.664 204.168 218.75C204.168 228.178 199.703 236.773 192.233 242.206L196.833 283.57ZM233.333 131.25H116.667V102.083C116.667 69.9186 142.836 43.75 175 43.75C207.164 43.75 233.333 69.9186 233.333 102.083V131.25Z" fill="white"/>
</svg>
