<svg width="29" height="29" viewBox="0 0 29 29" fill="none" xmlns="http://www.w3.org/2000/svg">
<path d="M0.512241 13.982L7.19442 16.476L9.78083 24.7938C9.94633 25.3266 10.5978 25.5235 11.0302 25.17L14.7549 22.1335C15.1453 21.8153 15.7015 21.7995 16.1095 22.0957L22.8276 26.9732C23.2902 27.3094 23.9455 27.0559 24.0615 26.497L28.9829 2.82421C29.1095 2.21367 28.5096 1.70433 27.9283 1.92918L0.504411 12.5085C-0.172352 12.7695 -0.166456 13.7276 0.512241 13.982ZM9.36401 15.1483L22.4235 7.105C22.6582 6.96087 22.8997 7.27823 22.6981 7.46518L11.9203 17.4837C11.5414 17.8364 11.297 18.3083 11.2278 18.8205L10.8607 21.5413C10.8121 21.9046 10.3018 21.9406 10.2015 21.589L8.78952 16.6276C8.62779 16.0617 8.86347 15.4573 9.36401 15.1483Z" fill="#E6F2F1"/>
</svg>
