<svg width="350" height="350" viewBox="0 0 350 350" fill="none" xmlns="http://www.w3.org/2000/svg">
<path d="M320.354 77.6289L315.118 79.2889L287.233 81.7733L279.356 94.3513L273.641 92.5354L251.448 72.5264L248.229 62.1209L243.917 51.0247L229.969 38.5135L213.514 35.2938L213.135 42.825L229.256 58.5559L237.143 67.8473L228.275 72.4819L221.056 70.354L210.238 65.842L210.606 57.1187L196.413 51.2809L191.7 71.7911L177.395 75.0331L178.81 86.4748L197.449 90.0621L200.668 71.78L216.054 74.0527L223.206 78.2417H234.681L242.536 93.9725L263.358 115.096L261.832 123.306L245.042 121.167L216.032 135.817L195.143 160.873L192.424 171.969H184.926L170.956 165.53L157.386 171.969L160.762 186.285L166.667 179.478L177.05 179.155L176.326 192.012L184.926 194.53L193.516 204.178L207.542 200.234L223.563 202.763L242.168 207.765L251.459 208.857L267.213 226.738L297.616 244.619L277.952 282.186L257.197 291.833L249.32 313.302L219.285 333.355L216.087 344.919C292.87 326.426 349.989 257.453 349.989 174.989C349.967 138.97 339.049 105.448 320.354 77.6289Z" fill="white"/>
<path d="M195.131 266.455L182.386 242.825L194.084 218.449L182.386 214.951L169.251 201.76L140.152 195.232L130.492 175.022V187.021H126.237L101.159 153.019V125.089L82.7763 95.1981L53.5873 100.401H33.9238L24.0307 93.9169L36.6533 83.9125L24.0642 86.8202C8.89037 112.734 0.0445557 142.803 0.0445557 175.011C0.0445557 271.635 78.3757 350 175.011 350C182.453 350 189.75 349.343 196.97 348.474L195.143 327.273C195.143 327.273 203.175 295.789 203.175 294.719C203.164 293.638 195.131 266.455 195.131 266.455Z" fill="white"/>
<path d="M65.0623 56.4283L96.1452 52.0945L110.472 44.2402L126.593 48.8859L152.351 47.4599L161.174 33.5896L174.042 35.7063L205.292 32.7763L213.904 23.2843L226.047 15.1738L243.226 17.7585L249.487 16.8115C226.86 6.16087 201.682 0 175 0C120.688 0 72.1256 24.7549 40.0623 63.6252H40.1514L65.0623 56.4283ZM182.397 17.402L200.267 7.56462L211.742 14.1934L195.131 26.8382L179.267 28.4314L172.126 23.7968L182.397 17.402ZM129.467 18.8391L137.355 22.1257L147.683 18.8391L153.309 28.5873L129.467 34.8485L118.003 28.1417C117.992 28.1417 129.211 20.9225 129.467 18.8391Z" fill="white"/>
</svg>
